<svg xmlns="http://www.w3.org/2000/svg" xmlns:xlink="http://www.w3.org/1999/xlink" aria-hidden="true" width="16" height="16" style="-ms-transform: rotate(360deg); -webkit-transform: rotate(360deg); transform: rotate(360deg);" preserveAspectRatio="xMidYMid meet" viewBox="0 0 16 16"><path d="M11 8v6h1V8h2.5l-3-3-3 3z" fill="#626262"/><path d="M1 3h1.5v1H1V3z" fill="#626262"/><path d="M3 3h1.5v1H3V3z" fill="#626262"/><path d="M5 3h1v1.5H5V3z" fill="#626262"/><path d="M1 6.5h1V8H1V6.5z" fill="#626262"/><path d="M2.5 7H4v1H2.5V7z" fill="#626262"/><path d="M4.5 7H6v1H4.5V7z" fill="#626262"/><path d="M1 4.5h1V6H1V4.5z" fill="#626262"/><path d="M5 5h1v1.5H5V5z" fill="#626262"/><path d="M5 11v3H2v-3h3zm1-1H1v5h5v-5z" fill="#626262"/></svg>
