<svg xmlns="http://www.w3.org/2000/svg" xmlns:xlink="http://www.w3.org/1999/xlink" aria-hidden="true" width="16" height="16" style="-ms-transform: rotate(360deg); -webkit-transform: rotate(360deg); transform: rotate(360deg);" preserveAspectRatio="xMidYMid meet" viewBox="0 0 16 16"><path d="M12 11V5h-1v6H8.5l3 3 3-3z" fill="#626262"/><path d="M5 4v3H2V4h3zm1-1H1v5h5V3z" fill="#626262"/><path d="M1 10h1.5v1H1v-1z" fill="#626262"/><path d="M3 10h1.5v1H3v-1z" fill="#626262"/><path d="M5 10h1v1.5H5V10z" fill="#626262"/><path d="M1 13.5h1V15H1v-1.5z" fill="#626262"/><path d="M2.5 14H4v1H2.5v-1z" fill="#626262"/><path d="M4.5 14H6v1H4.5v-1z" fill="#626262"/><path d="M1 11.5h1V13H1v-1.5z" fill="#626262"/><path d="M5 12h1v1.5H5V12z" fill="#626262"/></svg>
