<svg xmlns="http://www.w3.org/2000/svg" xmlns:xlink="http://www.w3.org/1999/xlink" aria-hidden="true" focusable="false" width="1em" height="1em" style="-ms-transform: rotate(360deg); -webkit-transform: rotate(360deg); transform: rotate(360deg);" preserveAspectRatio="xMidYMid meet" viewBox="0 0 1200 1200"><path d="M600 1200C268.63 1200 0 931.369 0 600 0 268.63 268.63 0 600 0c331.369 0 600 268.63 600 600s-268.631 600-600 600zm0-1069.565c-259.369 0-469.565 210.261-469.565 469.565 0 259.305 210.196 469.564 469.565 469.564S1069.564 859.305 1069.564 600c0-259.304-210.195-469.565-469.564-469.565zm117.392 720.652H482.608V584.348H335.87L600 335.87l264.131 248.478H717.392v266.739z" fill="#626262"/></svg>